<?xml version="1.0" encoding="UTF-8" standalone="no"?>
<svg width="301px" height="63px" viewBox="0 0 301 63" version="1.1" xmlns="http://www.w3.org/2000/svg" xmlns:xlink="http://www.w3.org/1999/xlink" xmlns:sketch="http://www.bohemiancoding.com/sketch/ns">
    <!-- Generator: Sketch 3.3.3 (12081) - http://www.bohemiancoding.com/sketch -->
    <title>Imported Layers Copy</title>
    <desc>Created with Sketch.</desc>
    <defs></defs>
    <g id="Page-1" stroke="none" stroke-width="1" fill="none" fill-rule="evenodd" sketch:type="MSPage">
        <g id="Desktop" sketch:type="MSArtboardGroup" transform="translate(-522.000000, -64.000000)" fill="#1A1918">
            <g id="Imported-Layers-Copy" sketch:type="MSLayerGroup" transform="translate(522.000000, 64.000000)">
                <path d="M83.1473353,45.3985 L72.7141185,45.3985 L70.5914595,51.657375 L66.0895087,51.657375 L75.8807081,24.8535 L80.0894884,24.8535 L89.7719451,51.657375 L85.2517254,51.657375 L83.1473353,45.3985 L83.1473353,45.3985 Z M73.9955434,41.661375 L81.8841792,41.661375 L78.0225058,30.211125 L77.9128931,30.211125 L73.9955434,41.661375 L73.9955434,41.661375 Z" id="Fill-1" sketch:type="MSShapeGroup"></path>
                <path d="M97.4970318,40.537875 L97.4970318,51.657375 L93.0498873,51.657375 L93.0498873,24.8535 L102.895893,24.8535 C105.873705,24.8535 108.172962,25.529 109.796275,26.87825 C111.419587,28.22925 112.231243,30.156 112.231243,32.659375 C112.231243,34.04625 111.873697,35.23975 111.159474,36.239875 C110.446121,37.24 109.405671,38.0415 108.039861,38.642625 C109.540512,39.120375 110.62011,39.9035 111.279526,40.989375 C111.937202,42.07525 112.26778,43.409625 112.26778,44.993375 L112.26778,47.22025 C112.26778,48.006 112.364344,48.773375 112.560081,49.5215 C112.755818,50.2705 113.084656,50.841 113.548335,51.233875 L113.548335,51.657375 L108.973309,51.657375 C108.484402,51.25225 108.170353,50.614375 108.030292,49.742 C107.889361,48.871375 107.819766,48.019125 107.819766,47.1835 L107.819766,45.030125 C107.819766,43.6555 107.429162,42.562625 106.648824,41.75325 C105.867616,40.943 104.794107,40.537875 103.427428,40.537875 L97.4970318,40.537875 L97.4970318,40.537875 Z M97.4970318,36.948625 L102.657529,36.948625 C104.439171,36.948625 105.738864,36.60475 106.55748,35.917875 C107.375225,35.230125 107.783228,34.181 107.783228,32.769625 C107.783228,31.4195 107.380445,30.36075 106.574879,29.59425 C105.770182,28.826875 104.543564,28.443625 102.895893,28.443625 L97.4970318,28.443625 L97.4970318,36.948625 L97.4970318,36.948625 Z" id="Fill-2" sketch:type="MSShapeGroup"></path>
                <path d="M137.636165,40.667375 C137.636165,42.32375 137.355173,43.86375 136.794061,45.287375 C136.232078,46.711875 135.439561,47.938625 134.414769,48.969375 L138.844514,53.295375 L135.878882,55.965 L130.974147,51.25225 C130.314731,51.522625 129.618777,51.72125 128.886286,51.85075 C128.155535,51.979375 127.398685,52.044125 126.617477,52.044125 C123.420439,52.044125 120.825402,50.967 118.830624,48.81275 C116.834977,46.659375 115.837153,43.94425 115.837153,40.667375 L115.837153,35.844375 C115.837153,32.57975 116.834977,29.86725 118.830624,27.706875 C120.825402,25.547375 123.41435,24.467625 126.599208,24.467625 C129.857142,24.467625 132.512205,25.547375 134.560919,27.706875 C136.611373,29.86725 137.636165,32.57975 137.636165,35.844375 L137.636165,40.667375 L137.636165,40.667375 Z M133.206419,35.80675 C133.206419,33.57375 132.611379,31.738875 131.422168,30.303 C130.232087,28.867125 128.624434,28.14875 126.599208,28.14875 C124.647058,28.14875 123.10378,28.867125 121.969376,30.303 C120.834971,31.738875 120.266899,33.57375 120.266899,35.80675 L120.266899,40.667375 C120.266899,42.924875 120.834971,44.7755 121.969376,46.2175 C123.10378,47.6595 124.652277,48.3805 126.617477,48.3805 C128.654882,48.3805 130.263405,47.662125 131.440436,46.22625 C132.618338,44.790375 133.206419,42.938 133.206419,40.667375 L133.206419,35.80675 L133.206419,35.80675 Z" id="Fill-3" sketch:type="MSShapeGroup"></path>
                <path d="M162.279017,24.8535 L162.279017,42.82075 C162.279017,45.791375 161.314251,48.07075 159.387329,49.65975 C157.459538,51.249625 154.940185,52.044125 151.827532,52.044125 C148.777514,52.044125 146.306879,51.246125 144.415624,49.651 C142.52437,48.055 141.578743,45.779125 141.578743,42.82075 L141.578743,24.8535 L146.026757,24.8535 L146.026757,42.80675 C146.026757,44.683625 146.550462,46.09325 147.600483,47.03825 C148.649633,47.982375 150.058939,48.454 151.827532,48.454 C153.65876,48.454 155.116783,47.982375 156.202471,47.03825 C157.288159,46.09325 157.831873,44.683625 157.831873,42.80675 L157.831873,24.8535 L162.279017,24.8535" id="Fill-4" sketch:type="MSShapeGroup"></path>
                <path d="M166.557393,24.8535 L171.005408,24.8535 L171.005408,51.657375 L166.557393,51.657375 L166.557393,24.8535 Z" id="Fill-5" sketch:type="MSShapeGroup"></path>
                <path d="M195.783101,48.0305 C195.074968,49.049875 193.913595,49.973 192.296373,50.80075 C190.67915,51.629375 188.602598,52.044125 186.064977,52.044125 C182.85489,52.044125 180.213746,51.022125 178.138934,48.979 C176.065861,46.935 175.02802,44.293375 175.02802,41.05325 L175.02802,35.457625 C175.02802,32.2175 176.006705,29.575875 177.965815,27.531875 C179.924055,25.48875 182.452977,24.467625 185.552581,24.467625 C188.687853,24.467625 191.125431,25.24375 192.864445,26.796 C194.60259,28.349125 195.489931,30.370375 195.527338,32.8615 L195.489931,32.97175 L191.28115,32.97175 C191.182847,31.499125 190.660882,30.31175 189.715254,29.409625 C188.769627,28.508375 187.401208,28.056875 185.606517,28.056875 C183.76485,28.056875 182.278988,28.749875 181.149803,30.135875 C180.021488,31.521 179.457766,33.280625 179.457766,35.413875 L179.457766,41.041875 C179.457766,43.199625 180.071075,44.975 181.296824,46.367125 C182.523442,47.758375 184.111957,48.454 186.064977,48.454 C187.455145,48.454 188.58346,48.292125 189.450792,47.9675 C190.317254,47.64375 190.944483,47.2605 191.335087,46.820375 L191.335087,41.384875 L186.046708,41.384875 L186.046708,38.0345 L195.783101,38.0345 L195.783101,48.0305" id="Fill-6" sketch:type="MSShapeGroup"></path>
                <path d="M204.033633,40.537875 L204.033633,51.657375 L199.586488,51.657375 L199.586488,24.8535 L209.433364,24.8535 C212.410306,24.8535 214.710434,25.529 216.333746,26.87825 C217.956188,28.22925 218.767844,30.156 218.767844,32.659375 C218.767844,34.04625 218.410298,35.23975 217.696945,36.239875 C216.982723,37.24 215.942272,38.0415 214.576462,38.642625 C216.077113,39.120375 217.157581,39.9035 217.816127,40.989375 C218.474673,42.07525 218.804382,43.409625 218.804382,44.993375 L218.804382,47.22025 C218.804382,48.006 218.901815,48.773375 219.096682,49.5215 C219.291549,50.2705 219.622127,50.841 220.085806,51.233875 L220.085806,51.657375 L215.50991,51.657375 C215.021873,51.25225 214.706954,50.614375 214.566893,49.742 C214.426832,48.871375 214.356367,48.019125 214.356367,47.1835 L214.356367,45.030125 C214.356367,43.6555 213.965763,42.562625 213.185425,41.75325 C212.404217,40.943 211.330708,40.537875 209.964029,40.537875 L204.033633,40.537875 L204.033633,40.537875 Z M204.033633,36.948625 L209.19587,36.948625 C210.977512,36.948625 212.276335,36.60475 213.094081,35.917875 C213.911827,35.230125 214.319829,34.181 214.319829,32.769625 C214.319829,31.4195 213.917916,30.36075 213.11235,29.59425 C212.307653,28.826875 211.081035,28.443625 209.433364,28.443625 L204.033633,28.443625 L204.033633,36.948625 L204.033633,36.948625 Z" id="Fill-7" sketch:type="MSShapeGroup"></path>
                <path d="M239.559462,45.3985 L229.126246,45.3985 L227.003587,51.657375 L222.500766,51.657375 L232.292835,24.8535 L236.502486,24.8535 L246.184072,51.657375 L241.663853,51.657375 L239.559462,45.3985 L239.559462,45.3985 Z M230.407671,41.661375 L238.295436,41.661375 L234.433763,30.211125 L234.32415,30.211125 L230.407671,41.661375 L230.407671,41.661375 Z" id="Fill-8" sketch:type="MSShapeGroup"></path>
                <path d="M264.982653,40.2255 L253.305419,40.2255 L253.305419,51.657375 L248.857405,51.657375 L248.857405,24.8535 L266.849549,24.8535 L266.849549,28.443625 L253.305419,28.443625 L253.305419,36.635375 L264.982653,36.635375 L264.982653,40.2255" id="Fill-9" sketch:type="MSShapeGroup"></path>
                <path d="M269.865639,24.8535 L274.312783,24.8535 L274.312783,51.657375 L269.865639,51.657375 L269.865639,24.8535 Z" id="Fill-10" sketch:type="MSShapeGroup"></path>
                <path d="M294.199662,45.3985 L283.766445,45.3985 L281.643786,51.657375 L277.140965,51.657375 L286.933035,24.8535 L291.142685,24.8535 L300.824272,51.657375 L296.304052,51.657375 L294.199662,45.3985 L294.199662,45.3985 Z M285.04787,41.661375 L292.935636,41.661375 L289.073962,30.211125 L288.96522,30.211125 L285.04787,41.661375 L285.04787,41.661375 Z" id="Fill-11" sketch:type="MSShapeGroup"></path>
                <path d="M0.57416185,0.543375 L0.57416185,56.020125 L6.97258671,56.020125 L6.97258671,6.979875 L42.9307775,6.979875 L42.9307775,56.020125 L13.3727514,56.020125 L13.3727514,62.456625 L49.3300723,62.456625 L49.3300723,0.543375 L0.57416185,0.543375" id="Fill-12" sketch:type="MSShapeGroup"></path>
            </g>
        </g>
    </g>
</svg>